name analog
datacolumns 19
datarows 51
range 0.0 0.025
endheader
time	ground_force_vx	ground_force_vy	ground_force_vz	ground_force_px	ground_force_py	ground_force_pz	l_ground_force_vx	l_ground_force_vy	l_ground_force_vz	l_ground_force_px	l_ground_force_py	l_ground_force_pz	ground_torque_x	ground_torque_y	ground_torque_z	l_ground_torque_x	l_ground_torque_y	l_ground_torque_z
0.0	-0.0	-0.0	-0.0	0.8028945922851562	86.55286407470703	-505.8110656738281	9.122827529907228	-87.69865417480469	-482.1406555175781	-0.0	-0.0	-0.0	-0.0	-0.0	-0.0	82391.296875	-14837.462890625	1592.4835205078125
0.0005	-0.0	-0.0	-0.0	0.71368408203125	86.44940185546875	-506.813232421875	8.95506763458252	-87.64331817626953	-483.8126220703125	-0.0	-0.0	-0.0	-0.0	-0.0	-0.0	82492.96875	-14454.732421875	1539.269287109375
0.001	-0.0	-0.0	-0.0	0.974334716796875	86.4390640258789	-507.7760009765625	9.001896858215332	-87.78248596191406	-483.4466247558594	-0.0	-0.0	-0.0	-0.0	-0.0	-0.0	82573.3984375	-14620.560546875	1707.7364501953125
0.0015	-0.0	-0.0	-0.0	0.4631467461585998	86.70679473876953	-506.1203918457031	8.259281158447266	-87.79633331298828	-482.4913940429688	-0.0	-0.0	-0.0	-0.0	-0.0	-0.0	82583.6796875	-14557.5595703125	1586.9664306640625
0.002	-0.0	-0.0	-0.0	1.3180853128433228	86.55899047851562	-506.5262451171875	8.950757026672363	-88.03423309326172	-480.799560546875	-0.0	-0.0	-0.0	-0.0	-0.0	-0.0	82651.3515625	-14798.5771484375	1615.5272216796875
0.0025	-0.0	-0.0	-0.0	0.5418280363082886	86.71076202392578	-508.199951171875	8.786821365356445	-88.2067642211914	-483.8014221191406	-0.0	-0.0	-0.0	-0.0	-0.0	-0.0	82405.5390625	-14681.7744140625	1702.86962890625
0.003	-0.0	-0.0	-0.0	0.7996828556060791	86.48217010498047	-506.4981689453125	8.698040008544922	-87.95530700683594	-482.4412536621094	-0.0	-0.0	-0.0	-0.0	-0.0	-0.0	82648.0625	-14425.0498046875	1671.7640380859375
0.0035	-0.0	-0.0	-0.0	1.1565983295440674	86.723876953125	-506.46002197265625	8.529166221618652	-87.70343017578125	-482.5105590820313	-0.0	-0.0	-0.0	-0.0	-0.0	-0.0	82894.984375	-14699.45703125	1561.748779296875
0.004	-0.0	-0.0	-0.0	1.144349217414856	86.80686950683594	-507.51959228515625	8.2586030960083	-87.54371643066406	-482.6111755371094	-0.0	-0.0	-0.0	-0.0	-0.0	-0.0	82615.828125	-14498.5048828125	1524.746337890625
0.0045000000000000005	-0.0	-0.0	-0.0	1.4955474138259888	86.45049285888672	-507.1663818359375	8.359701156616211	-87.78760528564453	-482.5768432617188	-0.0	-0.0	-0.0	-0.0	-0.0	-0.0	82780.09375	-14714.46484375	1499.3072509765625
0.005	-0.0	-0.0	-0.0	0.9813156127929688	86.11467742919922	-506.4367065429688	8.524468421936035	-87.7835693359375	-483.6236267089844	-0.0	-0.0	-0.0	-0.0	-0.0	-0.0	82894.078125	-14882.3037109375	1636.6927490234375
0.0055	-0.0	-0.0	-0.0	0.6445733904838562	86.89927673339844	-506.813232421875	8.596856117248535	-87.71148681640625	-482.2420959472656	-0.0	-0.0	-0.0	-0.0	-0.0	-0.0	82817.1796875	-15092.7265625	1612.65234375
0.006	-0.0	-0.0	-0.0	1.5778095722198486	86.80183410644531	-505.0916137695313	8.612890243530273	-87.69947814941406	-483.241455078125	-0.0	-0.0	-0.0	-0.0	-0.0	-0.0	83024.359375	-14930.3798828125	1730.043701171875
0.006500000000000001	-0.0	-0.0	-0.0	0.9758421182632446	86.02450561523438	-506.46002197265625	8.9480562210083	-87.60343170166016	-483.30279541015625	-0.0	-0.0	-0.0	-0.0	-0.0	-0.0	82907.484375	-15020.521484375	1674.962890625
0.007	-0.0	-0.0	-0.0	1.3354816436767578	86.35665893554688	-504.8106994628906	9.47284984588623	-87.52679443359375	-484.6375427246094	-0.0	-0.0	-0.0	-0.0	-0.0	-0.0	83027.3359375	-15059.59375	1729.5462646484375
0.0075	-0.0	-0.0	-0.0	0.9735080599784852	85.94510650634766	-506.7926330566406	8.986163139343262	-87.34264373779297	-485.2762451171875	-0.0	-0.0	-0.0	-0.0	-0.0	-0.0	83344.71875	-15156.869140625	1848.000732421875
0.008	-0.0	-0.0	-0.0	1.0654627084732056	86.88443756103516	-504.6941528320313	9.140917778015137	-87.18827056884766	-483.98248291015625	-0.0	-0.0	-0.0	-0.0	-0.0	-0.0	83007.859375	-15206.6142578125	1793.861572265625
0.0085	-0.0	-0.0	-0.0	1.0779019594192505	86.44912719726562	-506.4210815429688	8.956154823303223	-87.2690658569336	-485.2921142578125	-0.0	-0.0	-0.0	-0.0	-0.0	-0.0	83155.9453125	-15378.859375	1704.7176513671875
0.009000000000000001	-0.0	-0.0	-0.0	1.5117840766906738	86.1239242553711	-505.45745849609375	8.977656364440918	-87.60443878173828	-484.7349548339844	-0.0	-0.0	-0.0	-0.0	-0.0	-0.0	83482.5859375	-15326.6708984375	1707.03759765625
0.0095	-0.0	-0.0	-0.0	1.4227155447006226	86.26892852783203	-505.0841369628906	9.044997215270996	-87.76734924316406	-486.0052490234375	-0.0	-0.0	-0.0	-0.0	-0.0	-0.0	83489.9375	-15604.16015625	1792.4749755859375
0.01	-0.0	-0.0	-0.0	1.514325737953186	86.6302490234375	-506.0801086425781	9.396483421325684	-87.45213317871094	-486.0730285644531	-0.0	-0.0	-0.0	-0.0	-0.0	-0.0	83421.96875	-15754.771484375	1676.467041015625
0.0105	-0.0	-0.0	-0.0	1.3206194639205933	86.88243103027344	-507.4935607910156	8.53308391571045	-87.79176330566406	-485.3605346679688	-0.0	-0.0	-0.0	-0.0	-0.0	-0.0	83493.5390625	-15693.09765625	1732.8211669921875
0.011	-0.0	-0.0	-0.0	0.8198646903038025	86.81301879882812	-507.1663818359375	9.038602828979492	-87.52679443359375	-486.0579833984375	-0.0	-0.0	-0.0	-0.0	-0.0	-0.0	83811.9921875	-15501.2705078125	1877.1790771484373
0.0115	-0.0	-0.0	-0.0	0.6388083100318909	86.90419006347656	-506.82135009765625	9.130759239196776	-87.79818725585938	-487.0411376953125	-0.0	-0.0	-0.0	-0.0	-0.0	-0.0	83898.5078125	-15719.9111328125	1875.1402587890625
0.012	-0.0	-0.0	-0.0	0.8187960386276245	86.90214538574219	-506.813232421875	8.706321716308594	-87.96524810791016	-486.7547302246094	-0.0	-0.0	-0.0	-0.0	-0.0	-0.0	83707.0390625	-15803.6611328125	1820.9017333984373
0.0125	-0.0	-0.0	-0.0	1.247032642364502	87.2529296875	-507.8424377441406	9.406436920166016	-87.77328491210938	-486.7904052734375	-0.0	-0.0	-0.0	-0.0	-0.0	-0.0	84338.15625	-16117.935546875	1825.6348876953125
0.013000000000000001	-0.0	-0.0	-0.0	1.169005036354065	86.99312591552734	-507.8213806152344	9.406375885009766	-87.69437408447266	-486.7412109375	-0.0	-0.0	-0.0	-0.0	-0.0	-0.0	84160.84375	-15995.4794921875	1878.857177734375
0.0135	-0.0	-0.0	-0.0	1.0687437057495115	86.80945587158203	-507.15228271484375	9.311670303344728	-87.0145492553711	-486.4148559570313	-0.0	-0.0	-0.0	-0.0	-0.0	-0.0	84052.3828125	-16173.330078125	1855.3363037109373
0.014	-0.0	-0.0	-0.0	1.2574917078018188	86.90214538574219	-507.1393127441406	9.743741035461426	-87.43560028076172	-486.06451416015625	-0.0	-0.0	-0.0	-0.0	-0.0	-0.0	84264.7578125	-16213.380859375	1884.1856689453125
0.0145	-0.0	-0.0	-0.0	1.1679716110229492	87.16625213623047	-506.8327941894531	9.325942993164062	-87.1650619506836	-487.0442810058594	-0.0	-0.0	-0.0	-0.0	-0.0	-0.0	84378.4140625	-16519.560546875	1888.664306640625
0.015	-0.0	-0.0	-0.0	1.4320967197418213	86.99127197265625	-507.51959228515625	9.578007698059082	-87.4384765625	-487.0882263183594	-0.0	-0.0	-0.0	-0.0	-0.0	-0.0	84536.0625	-16680.171875	2029.5772705078125
0.0155	-0.0	-0.0	-0.0	1.7766964435577393	86.81602478027344	-506.4778747558594	9.760869979858398	-87.2538070678711	-488.09283447265625	-0.0	-0.0	-0.0	-0.0	-0.0	-0.0	84336.453125	-16551.74609375	1912.9420166015625
0.016	-0.0	-0.0	-0.0	0.9021989107131958	87.17098236083984	-507.1549682617188	9.403343200683594	-86.99163055419922	-489.4795837402344	-0.0	-0.0	-0.0	-0.0	-0.0	-0.0	84707.109375	-16745.763671875	2030.5333251953125
0.0165	-0.0	-0.0	-0.0	1.3313140869140625	87.0817642211914	-506.8186645507813	9.745431900024414	-86.98416137695312	-489.1313171386719	-0.0	-0.0	-0.0	-0.0	-0.0	-0.0	84450.03125	-16728.705078125	1798.6083984375
0.017	-0.0	-0.0	-0.0	1.4208297729492188	87.16692352294922	-507.488525390625	9.225921630859377	-87.25190734863281	-488.8024597167969	-0.0	-0.0	-0.0	-0.0	-0.0	-0.0	84585.3828125	-16647.7421875	1999.8887939453125
0.0175	-0.0	-0.0	-0.0	1.0791829824447632	86.10615539550781	-506.4404296875	9.218663215637209	-87.16387176513672	-487.75531005859375	-0.0	-0.0	-0.0	-0.0	-0.0	-0.0	84651.3359375	-16703.267578125	1769.1134033203125
0.018000000000000002	-0.0	-0.0	-0.0	1.070526123046875	86.28055572509766	-505.0288696289063	9.137210845947266	-86.91087341308594	-487.0665283203125	-0.0	-0.0	-0.0	-0.0	-0.0	-0.0	84899.1796875	-16818.087890625	1910.231689453125
0.0185	-0.0	-0.0	-0.0	0.809506893157959	86.54562377929688	-503.9834289550781	9.230493545532228	-86.73417663574219	-489.7877807617188	-0.0	-0.0	-0.0	-0.0	-0.0	-0.0	84573.21875	-16922.70703125	1857.1904296875
0.019	-0.0	-0.0	-0.0	0.9823468327522278	86.71975708007812	-502.61181640625	8.946497917175293	-86.99024200439453	-487.7299499511719	-0.0	-0.0	-0.0	-0.0	-0.0	-0.0	84191.140625	-17058.505859375	1737.40869140625
0.0195	-0.0	-0.0	-0.0	0.8028945922851562	86.81015014648438	-504.3485412597656	8.946935653686523	-86.64997100830078	-486.6752014160156	-0.0	-0.0	-0.0	-0.0	-0.0	-0.0	84298.4453125	-16716.98046875	1796.0093994140625
0.02	-0.0	-0.0	-0.0	1.0669375658035278	86.45560455322266	-502.571533203125	8.708230018615723	-86.6394271850586	-487.3992614746094	-0.0	-0.0	-0.0	-0.0	-0.0	-0.0	84100.140625	-16508.228515625	1879.900634765625
0.0205	-0.0	-0.0	-0.0	1.064759612083435	86.103271484375	-502.9445190429688	8.875096321105957	-86.47693634033203	-486.0348510742188	-0.0	-0.0	-0.0	-0.0	-0.0	-0.0	84345.0703125	-16725.06640625	1735.1968994140625
0.021	-0.0	-0.0	-0.0	0.5375489592552185	86.54866790771484	-504.3258666992188	9.312685012817385	-86.63387298583984	-484.6224365234375	-0.0	-0.0	-0.0	-0.0	-0.0	-0.0	84292.625	-16464.5859375	1705.78369140625
0.021500000000000002	-0.0	-0.0	-0.0	0.715065598487854	86.8095703125	-504.3327331542969	9.050376892089844	-86.81461334228516	-486.70257568359375	-0.0	-0.0	-0.0	-0.0	-0.0	-0.0	84361.625	-16710.021484375	1708.03759765625
0.022	-0.0	-0.0	-0.0	0.7118321657180786	86.72017669677734	-500.46331787109375	9.397932052612305	-86.38220977783203	-486.0119323730469	-0.0	-0.0	-0.0	-0.0	-0.0	-0.0	84538.1875	-16638.771484375	1881.431884765625
0.0225	-0.0	-0.0	-0.0	0.7131280303001404	86.1929931640625	-502.926025390625	9.053728103637695	-86.80634307861328	-486.0464782714844	-0.0	-0.0	-0.0	-0.0	-0.0	-0.0	84490.5390625	-16651.921875	1796.2275390625
0.023	-0.0	-0.0	-0.0	0.0911907479166984	86.36735534667969	-503.2755432128906	8.973245620727539	-86.28358459472656	-485.3273620605469	-0.0	-0.0	-0.0	-0.0	-0.0	-0.0	84204.8359375	-16770.732421875	1821.9488525390625
0.0235	-0.0	-0.0	-0.0	0.7132624983787537	86.81007385253906	-501.5138244628906	9.404952049255373	-85.94340515136719	-483.6130065917969	-0.0	-0.0	-0.0	-0.0	-0.0	-0.0	84183.6015625	-16748.494140625	1794.9036865234375
0.024	-0.0	-0.0	-0.0	0.0916629135608673	86.27857971191406	-499.4061279296875	9.83613109588623	-86.37555694580078	-486.0130004882813	-0.0	-0.0	-0.0	-0.0	-0.0	-0.0	84274.140625	-16612.833984375	1822.1693115234373
0.0245	-0.0	-0.0	-0.0	0.6233658194541931	86.0999755859375	-499.4051818847656	9.3175630569458	-86.20487976074219	-484.983154296875	-0.0	-0.0	-0.0	-0.0	-0.0	-0.0	84195.875	-17043.06640625	1676.07080078125
0.025	-0.0	-0.0	-0.0	0.2676315307617187	86.01148223876953	-501.16064453125	9.224517822265623	-86.02113342285156	-485.3262634277344	-0.0	-0.0	-0.0	-0.0	-0.0	-0.0	84450.203125	-16700.130859375	1587.50830078125
